<svg xmlns="http://www.w3.org/2000/svg" viewBox="0 0 32 32"><defs><style>.cls-1{fill:#0571a6;}.cls-2{fill:#fff;}</style></defs><title>Recurso 4</title><g id="Capa_2" data-name="Capa 2"><g id="Capa_1-2" data-name="Capa 1"><rect class="cls-1" width="32" height="32"/><path class="cls-2" d="M8.16,6.54A2,2,0,0,0,6,8.62a2,2,0,0,0,2.13,2,2.06,2.06,0,1,0,0-4.12Z"/><rect class="cls-2" x="6.11" y="12.28" width="4.1" height="13.18"/><path class="cls-2" d="M21.28,12a4.82,4.82,0,0,0-4.07,2.11h-.08l-.19-1.81H13.39c0,1.16.1,2.56.1,4.21v9h4.1v-7.6a2.73,2.73,0,0,1,.16-1,2.19,2.19,0,0,1,2.08-1.54c1.48,0,2.07,1.16,2.07,2.86v7.3H26V17.64C26,13.76,24,12,21.28,12Z"/></g></g></svg>