<svg xmlns="http://www.w3.org/2000/svg" viewBox="0 0 131 32"><defs><style>.cls-1{fill:#85cce0;}.cls-2{fill:#fff;}.cls-3{fill:#39579a;}.cls-4{fill:#0571a6;}</style></defs><title>Capa 1</title><g id="Capa_2" data-name="Capa 2"><g id="Capa_1-2" data-name="Capa 1"><rect class="cls-1" width="32" height="32"/><path class="cls-2" d="M21.32,23.49A2.51,2.51,0,0,1,18.82,26H18.2a7.23,7.23,0,0,1-5.31-2.2,7.16,7.16,0,0,1-2.21-5.29v-10a2.39,2.39,0,0,1,.75-1.77A2.46,2.46,0,0,1,13.21,6a2.53,2.53,0,0,1,2.51,2.51V11h3.1a2.51,2.51,0,0,1,2.5,2.51A2.51,2.51,0,0,1,18.82,16H15.69v2.48A2.53,2.53,0,0,0,18.17,21h.65a2.49,2.49,0,0,1,2.5,2.5Z"/><rect class="cls-3" x="49.5" width="32" height="32"/><path class="cls-2" d="M69.92,9.06a10.3,10.3,0,0,0-2-.23c-1.36,0-1.56.6-1.56,1.65V12.2h3.51L69.69,15H66.38V26H62.92V15H60.71V12.2h2.21V10.28C62.92,7.42,64.25,6,67.31,6a10.79,10.79,0,0,1,3,.4Z"/><rect class="cls-4" x="99" width="32" height="32"/><path class="cls-2" d="M107.16,6.54A2,2,0,0,0,105,8.62a2,2,0,0,0,2.13,2,2.06,2.06,0,1,0,0-4.12Z"/><rect class="cls-2" x="105.11" y="12.28" width="4.1" height="13.18"/><path class="cls-2" d="M120.28,12a4.82,4.82,0,0,0-4.07,2.11h-.08l-.19-1.81h-3.55c0,1.16.1,2.56.1,4.21v9h4.1v-7.6a2.73,2.73,0,0,1,.16-1,2.18,2.18,0,0,1,2.08-1.54c1.48,0,2.07,1.16,2.07,2.86v7.3H125V17.64C125,13.76,123,12,120.28,12Z"/></g></g></svg>