<svg xmlns="http://www.w3.org/2000/svg" viewBox="0 0 32 32"><defs><style>.cls-1{fill:#85cce0;}.cls-2{fill:#fff;}</style></defs><title>Recurso 3</title><g id="Capa_2" data-name="Capa 2"><g id="Capa_1-2" data-name="Capa 1"><rect class="cls-1" width="32" height="32"/><path class="cls-2" d="M21.32,23.49A2.51,2.51,0,0,1,18.82,26H18.2a7.23,7.23,0,0,1-5.31-2.2,7.16,7.16,0,0,1-2.21-5.29v-10a2.39,2.39,0,0,1,.75-1.77A2.46,2.46,0,0,1,13.21,6a2.53,2.53,0,0,1,2.51,2.51V11h3.1a2.51,2.51,0,0,1,2.5,2.51A2.51,2.51,0,0,1,18.82,16H15.69v2.48A2.53,2.53,0,0,0,18.17,21h.65a2.49,2.49,0,0,1,2.5,2.5Z"/></g></g></svg>